<?xml version="1.0" encoding="UTF-8" standalone="no"?>
<svg width="11px" height="20px" viewBox="0 0 11 20" version="1.1" xmlns="http://www.w3.org/2000/svg" xmlns:xlink="http://www.w3.org/1999/xlink">
    <!-- Generator: Sketch 39.1 (31720) - http://www.bohemiancoding.com/sketch -->
    <title>Icon_FB</title>
    <desc>Created with Sketch.</desc>
    <defs></defs>
    <g id="Sharing-Ballot" stroke="none" stroke-width="1" fill="black" fill-rule="evenodd">
        <g id="1_Share-BallotReady1.1" transform="translate(-136.000000, -165.000000)" fill="#FFFFFF">
            <g id="Group-4" transform="translate(23.000000, 147.000000)">
                <path d="M123.416456,18.0041613 L120.822904,18 C117.909137,18 116.026133,19.9318998 116.026133,22.922027 L116.026133,25.191411 L113.418433,25.191411 C113.193096,25.191411 113.010622,25.3740936 113.010622,25.5994299 L113.010622,28.8875087 C113.010622,29.112845 113.193305,29.2953195 113.418433,29.2953195 L116.026133,29.2953195 L116.026133,37.5921892 C116.026133,37.8175255 116.208608,38 116.433944,38 L119.836252,38 C120.061588,38 120.244062,37.8173174 120.244062,37.5921892 L120.244062,29.2953195 L123.293073,29.2953195 C123.518409,29.2953195 123.700883,29.112845 123.700883,28.8875087 L123.702132,25.5994299 C123.702132,25.4912352 123.659062,25.3876179 123.582701,25.3110494 C123.506341,25.2344808 123.402308,25.191411 123.294113,25.191411 L120.244062,25.191411 L120.244062,23.2676259 C120.244062,22.3429772 120.464405,21.8735786 121.668904,21.8735786 L123.41604,21.8729544 C123.641168,21.8729544 123.823643,21.6902718 123.823643,21.4651436 L123.823643,18.4119722 C123.823643,18.187052 123.641376,18.0045775 123.416456,18.0041613 L123.416456,18.0041613 Z" id="Icon_FB"></path>
            </g>
        </g>
    </g>
</svg>
