<?xml version="1.0" encoding="UTF-8" standalone="no"?>
<svg width="21px" height="17px" viewBox="0 0 21 17" version="1.1" xmlns="http://www.w3.org/2000/svg" xmlns:xlink="http://www.w3.org/1999/xlink">
    <!-- Generator: Sketch 39.1 (31720) - http://www.bohemiancoding.com/sketch -->
    <title>Icon_Twitter</title>
    <desc>Created with Sketch.</desc>
    <defs></defs>
    <g id="Sharing-Ballot" stroke="none" stroke-width="1" fill="none" fill-rule="evenodd">
        <g id="1_Share-BallotReady1.1" transform="translate(-51.000000, -167.000000)" fill="#FFFFFF">
            <g id="Group-4" transform="translate(23.000000, 147.000000)">
                <path d="M48.8052626,21.9630996 C48.0689575,22.289362 47.2789127,22.5106295 46.4488248,22.6094137 C47.296401,22.1018617 47.9451994,21.296813 48.2526987,20.3404826 C47.4576526,20.8105084 46.5800685,21.1518074 45.6449855,21.3368235 C44.8961935,20.5380183 43.831109,20.0404689 42.649752,20.0404689 C40.3833379,20.0404689 38.5456969,21.8781099 38.5456969,24.1432818 C38.5456969,24.4645429 38.5819483,24.7783184 38.6519668,25.0783648 C35.2417219,24.9070778 32.2177553,23.273216 30.1938561,20.7905031 C29.8400701,21.3955645 29.638808,22.1005868 29.638808,22.8531707 C29.638808,24.2770425 30.3638682,25.5333866 31.463962,26.2684168 C30.7913992,26.2459273 30.1588469,26.0609112 29.6050736,25.7533792 L29.6050736,25.8046345 C29.6050736,27.7922824 31.0201849,29.4511508 32.8965616,29.8287012 C32.5527782,29.9212092 32.1902644,29.9724646 31.815231,29.9724646 C31.5502265,29.9724646 31.2939499,29.9462158 31.0426745,29.8962026 C31.5651978,31.5275801 33.0803355,32.7139057 34.8754817,32.7464307 C33.4716151,33.8465244 31.7014755,34.5003241 29.7788448,34.5003241 C29.4475811,34.5003241 29.121286,34.4803188 28.8000249,34.4440674 C30.6164184,35.6104205 32.7728362,36.2904689 35.0905056,36.2904689 C42.6398148,36.2904689 46.7663921,30.0374817 46.7663921,24.6145824 L46.7526303,24.0832987 C47.5589211,23.5082125 48.2564578,22.7856692 48.8052626,21.9630996 L48.8052626,21.9630996 Z" id="Icon_Twitter"></path>
            </g>
        </g>
    </g>
</svg>